<svg xmlns="http://www.w3.org/2000/svg" viewBox="0 0 158 70"><title>placeholder</title><path d="M35.11,0a35,35,0,1,0,35,37.12,4.06,4.06,0,0,0,.28-1,6.23,6.23,0,0,1,3.22-4.24A11.72,11.72,0,0,1,79,30.62a11.43,11.43,0,0,1,5.35,1.3,6.23,6.23,0,0,1,3.22,4.24,4.26,4.26,0,0,0,.35.75V37a34.78,34.78,0,1,0,1.43-12.3c-.22-.14-.46-.29-.68-.41A19.44,19.44,0,0,0,79,21.88a19.69,19.69,0,0,0-9.74,2.39c-.2.11-.41.21-.61.34A35.21,35.21,0,0,0,35.11,0Zm.39,9A26.43,26.43,0,0,1,62,35.37v.13A26.43,26.43,0,0,1,35.63,62H35.5A26.43,26.43,0,0,1,9,35.63V35.5A26.43,26.43,0,0,1,35.37,9Zm87,0A26.43,26.43,0,0,1,149,35.37v.13A26.43,26.43,0,0,1,122.63,62h-.13A26.43,26.43,0,0,1,96,35.63V35.5A26.43,26.43,0,0,1,122.37,9Z" fill="#e6e5e5"/></svg>